<?xml version="1.0" standalone="no"?>
<!DOCTYPE svg PUBLIC "-//W3C//DTD SVG 20010904//EN"
 "http://www.w3.org/TR/2001/REC-SVG-20010904/DTD/svg10.dtd">
<svg version="1.0" xmlns="http://www.w3.org/2000/svg"
 width="512.000000pt" height="512.000000pt" viewBox="0 0 512.000000 512.000000"
 preserveAspectRatio="xMidYMid meet">

<g transform="translate(0.000000,512.000000) scale(0.100000,-0.100000)"
fill="#000000" stroke="none">
<path d="M2165 3969 c-319 -231 -581 -426 -583 -433 -2 -8 90 -301 203 -653
113 -351 213 -659 221 -686 l16 -47 736 2 736 3 223 680 c123 374 222 686 221
694 -4 18 -1158 861 -1178 860 -8 0 -276 -189 -595 -420z m1096 -135 c269
-197 489 -362 489 -368 0 -7 -85 -270 -189 -586 l-188 -575 -87 0 c-47 0 -324
2 -616 3 l-529 2 -85 263 c-47 144 -132 407 -189 583 l-104 322 495 356 c272
196 499 356 504 356 5 0 229 -160 499 -356z"/>
<path d="M3801 1909 c-18 -6 -52 -22 -75 -36 -54 -35 -176 -133 -176 -143 0
-4 7 -13 15 -20 9 -7 32 -39 51 -71 l36 -58 182 156 c99 86 182 159 184 163 8
20 -155 26 -217 9z"/>
<path d="M4265 1891 c-42 -20 -143 -100 -335 -266 -151 -130 -289 -243 -307
-251 -26 -11 -109 -14 -428 -14 l-395 0 0 80 0 80 355 0 c195 0 355 3 355 6 0
13 -25 52 -54 82 -63 68 -53 66 -466 72 l-375 5 -100 51 c-151 78 -216 96
-372 102 -239 8 -350 -32 -647 -235 -43 -29 -111 -72 -152 -94 l-73 -40 161
-323 161 -322 89 38 c188 81 413 118 602 99 57 -6 166 -25 242 -42 182 -42
400 -51 551 -24 219 39 354 103 624 292 718 506 849 599 849 609 0 20 -45 78
-79 101 -50 34 -128 32 -206 -6z"/>
<path d="M785 1571 c-110 -49 -199 -93 -198 -99 4 -18 554 -1186 564 -1196 8
-9 428 222 429 237 0 20 -572 1147 -583 1146 -6 0 -102 -40 -212 -88z"/>
</g>
</svg>
