<?xml version="1.0" standalone="no"?>
<!DOCTYPE svg PUBLIC "-//W3C//DTD SVG 20010904//EN"
 "http://www.w3.org/TR/2001/REC-SVG-20010904/DTD/svg10.dtd">
<svg version="1.0" xmlns="http://www.w3.org/2000/svg"
 width="512.000000pt" height="512.000000pt" viewBox="0 0 512.000000 512.000000"
 preserveAspectRatio="xMidYMid meet">

<g transform="translate(0.000000,512.000000) scale(0.100000,-0.100000)"
fill="#000000" stroke="none">
<path d="M840 5111 c-51 -16 -106 -50 -146 -90 -103 -105 -128 -255 -65 -397
28 -61 110 -139 171 -161 l50 -18 0 -215 0 -216 -91 -17 c-306 -58 -570 -274
-692 -567 -55 -133 -62 -176 -61 -365 0 -156 2 -177 28 -260 119 -389 450
-650 853 -672 276 -15 524 80 717 273 121 120 214 283 247 432 8 34 17 51 25
48 6 -2 91 -66 188 -142 131 -102 175 -142 171 -153 -15 -38 -22 -120 -15
-168 17 -106 67 -183 155 -238 234 -147 527 14 527 290 0 138 -74 254 -197
312 -51 24 -73 28 -145 28 -76 0 -93 -4 -148 -31 l-62 -30 -232 180 -232 181
-16 100 c-10 55 -27 129 -39 165 -26 76 -90 198 -131 250 l-28 36 189 162
c104 90 193 160 198 158 5 -3 12 -23 16 -43 4 -21 22 -76 42 -123 110 -268
344 -473 631 -552 64 -18 104 -22 242 -22 150 0 173 3 253 27 48 15 119 43
157 62 38 19 72 35 75 35 2 0 88 -111 190 -247 l186 -247 -73 -26 c-309 -109
-546 -385 -609 -710 -25 -128 -13 -333 27 -462 4 -13 -36 -48 -162 -142 l-167
-126 -39 60 c-85 130 -252 269 -398 331 -142 60 -211 73 -380 74 -131 0 -168
-4 -239 -23 -265 -72 -469 -235 -596 -475 -47 -89 -89 -212 -100 -294 l-7 -53
-219 0 c-170 0 -219 3 -219 13 0 23 -46 98 -85 138 -63 65 -125 92 -225 97
-116 5 -184 -19 -261 -97 -78 -77 -102 -145 -97 -261 4 -66 10 -96 30 -135
110 -213 392 -256 558 -85 31 31 56 70 67 100 l18 50 215 0 216 0 17 -91 c69
-367 370 -671 736 -745 126 -25 335 -16 456 20 234 70 432 228 554 441 39 68
91 199 91 230 0 8 2 15 4 15 5 0 537 -258 542 -263 2 -1 0 -28 -5 -58 -25
-152 53 -303 189 -368 47 -22 68 -26 150 -26 82 0 103 4 150 26 212 101 260
387 93 555 -114 113 -308 133 -434 43 l-30 -21 -312 151 -312 151 -7 93 c-4
50 -16 125 -26 165 l-19 72 136 102 c75 56 150 112 167 125 l31 23 38 -57
c126 -190 318 -322 565 -390 102 -27 338 -24 450 6 209 56 385 173 515 342
206 266 251 639 115 950 -139 315 -432 526 -776 559 -59 5 -110 8 -114 5 -4
-3 -106 127 -227 288 l-219 292 44 45 c135 138 213 303 259 547 l8 43 255
-124 c210 -102 254 -127 252 -142 -2 -11 -3 -55 -4 -100 -1 -68 3 -90 26 -140
123 -269 497 -272 628 -5 19 38 23 62 23 146 0 86 -3 107 -24 150 -33 66 -100
131 -169 163 -48 23 -71 27 -143 27 -77 0 -92 -3 -156 -35 l-71 -35 -308 148
c-170 82 -312 152 -316 156 -4 4 -17 41 -27 84 -84 328 -335 584 -666 679 -70
20 -102 23 -250 23 -129 -1 -185 -5 -231 -18 -280 -78 -511 -272 -626 -524
-37 -81 -78 -239 -78 -298 l0 -43 -238 -204 c-130 -111 -245 -209 -254 -217
-15 -11 -23 -9 -57 18 -96 76 -294 159 -418 176 l-53 7 0 219 c0 170 3 219 13
219 23 0 98 46 138 85 65 63 92 125 97 225 5 116 -19 184 -97 261 -71 72 -140
99 -244 98 -40 0 -83 -4 -97 -8z m181 -194 c78 -53 101 -140 57 -219 -54 -95
-177 -111 -254 -34 -58 58 -65 152 -16 213 51 63 150 82 213 40z m2145 3 c483
-122 722 -650 493 -1090 -35 -69 -127 -191 -148 -198 -5 -2 -10 23 -13 55 -8
105 -68 187 -165 223 -49 18 -78 20 -347 20 -331 0 -353 -4 -430 -71 -51 -45
-86 -123 -86 -192 l-1 -42 -49 53 c-104 111 -171 262 -189 425 -43 378 218
739 594 822 93 21 248 18 341 -5z m1688 -1023 c56 -31 79 -67 84 -130 5 -64
-12 -104 -63 -142 -66 -51 -159 -42 -214 20 -58 67 -60 149 -4 216 51 61 129
75 197 36z m-3749 -82 c40 -8 115 -37 175 -66 90 -45 117 -64 190 -138 166
-168 238 -349 227 -571 -10 -178 -59 -309 -169 -447 l-63 -78 -12 67 c-19 106
-55 159 -135 204 l-53 29 -308 3 c-346 3 -371 0 -445 -63 -50 -43 -79 -102
-88 -178 l-7 -58 -25 23 c-79 74 -169 242 -197 372 -26 115 -17 283 19 391 66
196 227 377 408 460 136 62 328 82 483 50z m2168 -77 c40 -21 46 -39 47 -141
l0 -98 -44 -19 c-90 -40 -167 -55 -291 -54 -124 0 -195 13 -290 54 l-45 19 0
93 c0 100 11 131 54 148 33 14 543 12 569 -2z m967 -1029 c85 -14 195 -60 286
-121 259 -173 386 -505 309 -809 -25 -99 -98 -238 -163 -309 l-57 -64 -6 60
c-10 105 -61 177 -156 221 -52 24 -53 24 -370 21 -304 -3 -320 -4 -358 -25
-86 -46 -144 -138 -145 -228 l-1 -50 -52 57 c-70 76 -130 184 -162 293 -33
111 -38 269 -11 379 22 91 82 216 141 295 98 129 276 241 435 275 121 25 172
26 310 5z m-3010 -84 c38 -20 52 -68 48 -164 l-3 -75 -75 -27 c-183 -66 -389
-61 -562 15 l-38 16 0 88 c0 95 12 130 50 149 39 20 541 18 580 -2z m1425 -19
c88 -67 91 -187 5 -259 -102 -86 -262 -8 -262 128 0 134 152 211 257 131z
m-457 -922 c410 -84 680 -487 596 -892 -28 -137 -90 -261 -182 -363 l-47 -53
-6 72 c-4 58 -11 80 -35 114 -42 60 -104 104 -164 117 -67 14 -553 14 -620 0
-111 -24 -195 -120 -207 -236 l-6 -57 -51 56 c-120 131 -176 275 -183 463 -6
158 11 238 78 375 45 90 64 117 138 190 90 89 159 135 262 177 131 53 284 66
427 37z m2185 -166 c40 -21 46 -39 47 -141 l0 -98 -47 -20 c-84 -37 -228 -62
-320 -56 -90 6 -194 29 -260 58 l-43 18 0 96 c0 93 1 98 29 126 l29 29 272 0
c187 0 278 -4 293 -12z m-3964 -438 c96 -49 115 -178 37 -256 -77 -77 -200
-61 -254 34 -44 79 -21 166 57 219 43 29 108 30 160 3z m1935 -599 c25 -23 26
-30 26 -127 l0 -103 -57 -21 c-179 -67 -378 -67 -555 2 l-58 23 0 87 c0 48 6
99 12 114 23 50 49 54 340 51 l266 -2 26 -24z m1573 -2 c73 -45 96 -141 53
-217 -61 -108 -219 -108 -280 0 -83 148 82 306 227 217z"/>
<path d="M2859 4756 c-32 -12 -70 -33 -85 -45 -202 -159 -164 -480 69 -587
172 -78 376 -4 455 166 31 66 40 169 21 238 -53 197 -273 306 -460 228z m218
-182 c45 -34 66 -70 71 -123 9 -102 -82 -192 -182 -177 -75 12 -146 91 -146
163 0 47 42 115 86 141 48 28 130 26 171 -4z"/>
<path d="M806 3645 c-184 -75 -261 -280 -177 -470 23 -52 94 -126 148 -153
170 -87 382 -19 469 150 40 76 45 199 13 283 -30 81 -112 164 -192 193 -81 31
-182 30 -261 -3z m215 -178 c125 -84 98 -258 -46 -298 -108 -30 -221 82 -196
192 25 108 155 165 242 106z"/>
<path d="M3985 2548 c-49 -17 -131 -76 -160 -114 -51 -67 -69 -122 -70 -214 0
-72 4 -94 26 -141 107 -227 400 -276 568 -94 56 61 83 124 89 207 11 155 -77
295 -218 349 -56 21 -184 25 -235 7z m184 -183 c99 -51 120 -178 42 -256 -71
-72 -164 -71 -233 2 -59 62 -61 144 -6 214 41 52 137 72 197 40z"/>
<path d="M1950 1526 c-95 -27 -173 -96 -216 -191 -23 -50 -28 -74 -28 -140 0
-103 34 -184 106 -251 74 -69 125 -89 233 -89 82 0 96 3 157 33 73 36 119 82
158 159 22 42 25 61 25 148 0 87 -3 106 -25 149 -35 69 -101 133 -167 163 -67
31 -174 39 -243 19z m174 -189 c54 -30 78 -67 83 -124 10 -95 -52 -172 -145
-180 -58 -5 -103 17 -146 70 -25 32 -30 47 -30 92 0 45 5 60 30 92 58 73 136
92 208 50z"/>
</g>
</svg>
