<?xml version="1.0" standalone="no"?>
<!DOCTYPE svg PUBLIC "-//W3C//DTD SVG 20010904//EN"
 "http://www.w3.org/TR/2001/REC-SVG-20010904/DTD/svg10.dtd">
<svg version="1.0" xmlns="http://www.w3.org/2000/svg"
 width="512.000000pt" height="512.000000pt" viewBox="0 0 512.000000 512.000000"
 preserveAspectRatio="xMidYMid meet">

<g transform="translate(0.000000,512.000000) scale(0.100000,-0.100000)"
fill="#000000" stroke="none">
<path d="M1640 5075 c-417 -68 -767 -245 -1059 -536 -270 -271 -443 -595 -522
-979 -21 -103 -24 -141 -24 -360 0 -219 3 -257 24 -360 168 -816 805 -1411
1627 -1520 150 -20 471 -8 616 23 758 165 1323 736 1479 1497 21 103 24 141
24 360 0 219 -3 257 -24 360 -157 762 -719 1331 -1479 1497 -103 22 -145 26
-347 29 -162 2 -255 -1 -315 -11z m415 -449 c50 -3 143 -19 207 -35 569 -143
990 -609 1077 -1188 16 -102 14 -322 -4 -428 -37 -230 -133 -453 -274 -640
-223 -293 -555 -492 -920 -551 -120 -19 -322 -19 -442 0 -356 57 -689 253
-903 531 -83 107 -115 160 -175 285 -91 190 -131 375 -131 600 0 237 41 414
144 625 192 392 536 668 961 771 100 24 285 44 345 38 14 -2 66 -5 115 -8z"/>
<path d="M1733 4184 c-314 -68 -573 -331 -640 -648 -21 -102 -13 -297 17 -391
76 -242 279 -519 580 -793 150 -137 174 -152 230 -152 56 0 79 15 234 155 190
172 393 414 478 570 103 190 132 299 125 474 -5 141 -21 211 -73 320 -112 238
-331 413 -584 466 -88 18 -281 18 -367 -1z m306 -450 c104 -33 192 -112 239
-212 24 -50 27 -69 27 -162 0 -93 -3 -111 -27 -163 -35 -74 -121 -160 -195
-195 -52 -24 -70 -27 -163 -27 -99 0 -110 2 -171 32 -80 39 -150 111 -187 191
-24 50 -27 69 -27 162 0 93 3 112 27 162 84 180 290 272 477 212z"/>
<path d="M3496 1966 c-85 -109 -233 -257 -342 -342 -52 -41 -81 -70 -77 -77
20 -33 1237 -1389 1266 -1411 51 -39 130 -53 203 -37 58 13 62 17 251 204 106
104 200 206 209 226 38 78 28 181 -23 249 -21 28 -1377 1245 -1410 1265 -7 4
-36 -25 -77 -77z"/>
</g>
</svg>
